mtllib outbreak_blockout.mtl
o floor_spawn
o border_spawn
o floor_hall
o border_hall
o floor_courtyard
o border_courtyard
o floor_stairs
o border_stairs
o floor_power
o border_power
o portal_spawn_to_hall
o portal_hall_to_courtyard
o portal_hall_to_stairs
o portal_stairs_to_power
o spawner_S_win1
o spawner_S_hall1
o spawner_S_court1
o spawner_S_power1
o station_wallBuy
o station_perk
o station_pack
o power_switch
o light_1
o light_2
o light_3
v 0.000000 0.000000 0.000000
v 12.000000 0.000000 0.000000
v 12.000000 0.050000 0.000000
v 0.000000 0.050000 0.000000
v 0.000000 0.000000 10.000000
v 12.000000 0.000000 10.000000
v 12.000000 0.050000 10.000000
v 0.000000 0.050000 10.000000
v 0.000000 0.000000 0.000000
v 0.120000 0.000000 0.000000
v 0.120000 0.500000 0.000000
v 0.000000 0.500000 0.000000
v 0.000000 0.000000 10.000000
v 0.120000 0.000000 10.000000
v 0.120000 0.500000 10.000000
v 0.000000 0.500000 10.000000
v 11.880000 0.000000 0.000000
v 12.000000 0.000000 0.000000
v 12.000000 0.500000 0.000000
v 11.880000 0.500000 0.000000
v 11.880000 0.000000 10.000000
v 12.000000 0.000000 10.000000
v 12.000000 0.500000 10.000000
v 11.880000 0.500000 10.000000
v 0.000000 0.000000 0.000000
v 12.000000 0.000000 0.000000
v 12.000000 0.500000 0.000000
v 0.000000 0.500000 0.000000
v 0.000000 0.000000 0.120000
v 12.000000 0.000000 0.120000
v 12.000000 0.500000 0.120000
v 0.000000 0.500000 0.120000
v 0.000000 0.000000 9.880000
v 12.000000 0.000000 9.880000
v 12.000000 0.500000 9.880000
v 0.000000 0.500000 9.880000
v 0.000000 0.000000 10.000000
v 12.000000 0.000000 10.000000
v 12.000000 0.500000 10.000000
v 0.000000 0.500000 10.000000
v 12.000000 0.000000 0.000000
v 24.000000 0.000000 0.000000
v 24.000000 0.050000 0.000000
v 12.000000 0.050000 0.000000
v 12.000000 0.000000 6.000000
v 24.000000 0.000000 6.000000
v 24.000000 0.050000 6.000000
v 12.000000 0.050000 6.000000
v 12.000000 0.000000 0.000000
v 12.120000 0.000000 0.000000
v 12.120000 0.500000 0.000000
v 12.000000 0.500000 0.000000
v 12.000000 0.000000 6.000000
v 12.120000 0.000000 6.000000
v 12.120000 0.500000 6.000000
v 12.000000 0.500000 6.000000
v 23.880000 0.000000 0.000000
v 24.000000 0.000000 0.000000
v 24.000000 0.500000 0.000000
v 23.880000 0.500000 0.000000
v 23.880000 0.000000 6.000000
v 24.000000 0.000000 6.000000
v 24.000000 0.500000 6.000000
v 23.880000 0.500000 6.000000
v 12.000000 0.000000 0.000000
v 24.000000 0.000000 0.000000
v 24.000000 0.500000 0.000000
v 12.000000 0.500000 0.000000
v 12.000000 0.000000 0.120000
v 24.000000 0.000000 0.120000
v 24.000000 0.500000 0.120000
v 12.000000 0.500000 0.120000
v 12.000000 0.000000 5.880000
v 24.000000 0.000000 5.880000
v 24.000000 0.500000 5.880000
v 12.000000 0.500000 5.880000
v 12.000000 0.000000 6.000000
v 24.000000 0.000000 6.000000
v 24.000000 0.500000 6.000000
v 12.000000 0.500000 6.000000
v 24.000000 0.000000 -8.000000
v 44.000000 0.000000 -8.000000
v 44.000000 0.050000 -8.000000
v 24.000000 0.050000 -8.000000
v 24.000000 0.000000 12.000000
v 44.000000 0.000000 12.000000
v 44.000000 0.050000 12.000000
v 24.000000 0.050000 12.000000
v 24.000000 0.000000 -8.000000
v 24.120000 0.000000 -8.000000
v 24.120000 0.500000 -8.000000
v 24.000000 0.500000 -8.000000
v 24.000000 0.000000 12.000000
v 24.120000 0.000000 12.000000
v 24.120000 0.500000 12.000000
v 24.000000 0.500000 12.000000
v 43.880000 0.000000 -8.000000
v 44.000000 0.000000 -8.000000
v 44.000000 0.500000 -8.000000
v 43.880000 0.500000 -8.000000
v 43.880000 0.000000 12.000000
v 44.000000 0.000000 12.000000
v 44.000000 0.500000 12.000000
v 43.880000 0.500000 12.000000
v 24.000000 0.000000 -8.000000
v 44.000000 0.000000 -8.000000
v 44.000000 0.500000 -8.000000
v 24.000000 0.500000 -8.000000
v 24.000000 0.000000 -7.880000
v 44.000000 0.000000 -7.880000
v 44.000000 0.500000 -7.880000
v 24.000000 0.500000 -7.880000
v 24.000000 0.000000 11.880000
v 44.000000 0.000000 11.880000
v 44.000000 0.500000 11.880000
v 24.000000 0.500000 11.880000
v 24.000000 0.000000 12.000000
v 44.000000 0.000000 12.000000
v 44.000000 0.500000 12.000000
v 24.000000 0.500000 12.000000
v 12.000000 0.000000 6.000000
v 18.000000 0.000000 6.000000
v 18.000000 0.050000 6.000000
v 12.000000 0.050000 6.000000
v 12.000000 0.000000 12.000000
v 18.000000 0.000000 12.000000
v 18.000000 0.050000 12.000000
v 12.000000 0.050000 12.000000
v 12.000000 0.000000 6.000000
v 12.120000 0.000000 6.000000
v 12.120000 0.500000 6.000000
v 12.000000 0.500000 6.000000
v 12.000000 0.000000 12.000000
v 12.120000 0.000000 12.000000
v 12.120000 0.500000 12.000000
v 12.000000 0.500000 12.000000
v 17.880000 0.000000 6.000000
v 18.000000 0.000000 6.000000
v 18.000000 0.500000 6.000000
v 17.880000 0.500000 6.000000
v 17.880000 0.000000 12.000000
v 18.000000 0.000000 12.000000
v 18.000000 0.500000 12.000000
v 17.880000 0.500000 12.000000
v 12.000000 0.000000 6.000000
v 18.000000 0.000000 6.000000
v 18.000000 0.500000 6.000000
v 12.000000 0.500000 6.000000
v 12.000000 0.000000 6.120000
v 18.000000 0.000000 6.120000
v 18.000000 0.500000 6.120000
v 12.000000 0.500000 6.120000
v 12.000000 0.000000 11.880000
v 18.000000 0.000000 11.880000
v 18.000000 0.500000 11.880000
v 12.000000 0.500000 11.880000
v 12.000000 0.000000 12.000000
v 18.000000 0.000000 12.000000
v 18.000000 0.500000 12.000000
v 12.000000 0.500000 12.000000
v 18.000000 0.000000 12.000000
v 30.000000 0.000000 12.000000
v 30.000000 0.050000 12.000000
v 18.000000 0.050000 12.000000
v 18.000000 0.000000 20.000000
v 30.000000 0.000000 20.000000
v 30.000000 0.050000 20.000000
v 18.000000 0.050000 20.000000
v 18.000000 0.000000 12.000000
v 18.120000 0.000000 12.000000
v 18.120000 0.500000 12.000000
v 18.000000 0.500000 12.000000
v 18.000000 0.000000 20.000000
v 18.120000 0.000000 20.000000
v 18.120000 0.500000 20.000000
v 18.000000 0.500000 20.000000
v 29.880000 0.000000 12.000000
v 30.000000 0.000000 12.000000
v 30.000000 0.500000 12.000000
v 29.880000 0.500000 12.000000
v 29.880000 0.000000 20.000000
v 30.000000 0.000000 20.000000
v 30.000000 0.500000 20.000000
v 29.880000 0.500000 20.000000
v 18.000000 0.000000 12.000000
v 30.000000 0.000000 12.000000
v 30.000000 0.500000 12.000000
v 18.000000 0.500000 12.000000
v 18.000000 0.000000 12.120000
v 30.000000 0.000000 12.120000
v 30.000000 0.500000 12.120000
v 18.000000 0.500000 12.120000
v 18.000000 0.000000 19.880000
v 30.000000 0.000000 19.880000
v 30.000000 0.500000 19.880000
v 18.000000 0.500000 19.880000
v 18.000000 0.000000 20.000000
v 30.000000 0.000000 20.000000
v 30.000000 0.500000 20.000000
v 18.000000 0.500000 20.000000
v 11.925000 0.000000 2.000000
v 12.075000 0.000000 2.000000
v 12.075000 2.000000 2.000000
v 11.925000 2.000000 2.000000
v 11.925000 0.000000 4.000000
v 12.075000 0.000000 4.000000
v 12.075000 2.000000 4.000000
v 11.925000 2.000000 4.000000
v 23.925000 0.000000 2.000000
v 24.075000 0.000000 2.000000
v 24.075000 2.000000 2.000000
v 23.925000 2.000000 2.000000
v 23.925000 0.000000 4.000000
v 24.075000 0.000000 4.000000
v 24.075000 2.000000 4.000000
v 23.925000 2.000000 4.000000
v 14.000000 0.000000 5.925000
v 16.000000 0.000000 5.925000
v 16.000000 2.000000 5.925000
v 14.000000 2.000000 5.925000
v 14.000000 0.000000 6.075000
v 16.000000 0.000000 6.075000
v 16.000000 2.000000 6.075000
v 14.000000 2.000000 6.075000
v 17.925000 2.000000 12.000000
v 18.075000 2.000000 12.000000
v 18.075000 4.000000 12.000000
v 17.925000 4.000000 12.000000
v 17.925000 2.000000 14.000000
v 18.075000 2.000000 14.000000
v 18.075000 4.000000 14.000000
v 17.925000 4.000000 14.000000
v 1.750000 1.000000 -0.150000
v 2.250000 1.000000 -0.150000
v 2.250000 1.800000 -0.150000
v 1.750000 1.800000 -0.150000
v 1.750000 1.000000 0.350000
v 2.250000 1.000000 0.350000
v 2.250000 1.800000 0.350000
v 1.750000 1.800000 0.350000
v 19.750000 0.000000 2.750000
v 20.250000 0.000000 2.750000
v 20.250000 1.200000 2.750000
v 19.750000 1.200000 2.750000
v 19.750000 0.000000 3.250000
v 20.250000 0.000000 3.250000
v 20.250000 1.200000 3.250000
v 19.750000 1.200000 3.250000
v 39.750000 0.000000 -0.250000
v 40.250000 0.000000 -0.250000
v 40.250000 1.200000 -0.250000
v 39.750000 1.200000 -0.250000
v 39.750000 0.000000 0.250000
v 40.250000 0.000000 0.250000
v 40.250000 1.200000 0.250000
v 39.750000 1.200000 0.250000
v 27.750000 2.000000 17.750000
v 28.250000 2.000000 17.750000
v 28.250000 2.800000 17.750000
v 27.750000 2.800000 17.750000
v 27.750000 2.000000 18.250000
v 28.250000 2.000000 18.250000
v 28.250000 2.800000 18.250000
v 27.750000 2.800000 18.250000
v 15.700000 1.000000 2.700000
v 16.300000 1.000000 2.700000
v 16.300000 2.400000 2.700000
v 15.700000 2.400000 2.700000
v 15.700000 1.000000 3.300000
v 16.300000 1.000000 3.300000
v 16.300000 2.400000 3.300000
v 15.700000 2.400000 3.300000
v 29.700000 1.000000 1.700000
v 30.300000 1.000000 1.700000
v 30.300000 2.400000 1.700000
v 29.700000 2.400000 1.700000
v 29.700000 1.000000 2.300000
v 30.300000 1.000000 2.300000
v 30.300000 2.400000 2.300000
v 29.700000 2.400000 2.300000
v 21.700000 1.000000 15.700000
v 22.300000 1.000000 15.700000
v 22.300000 2.400000 15.700000
v 21.700000 2.400000 15.700000
v 21.700000 1.000000 16.300000
v 22.300000 1.000000 16.300000
v 22.300000 2.400000 16.300000
v 21.700000 2.400000 16.300000
v 19.700000 1.000000 17.700000
v 20.300000 1.000000 17.700000
v 20.300000 2.200000 17.700000
v 19.700000 2.200000 17.700000
v 19.700000 1.000000 18.300000
v 20.300000 1.000000 18.300000
v 20.300000 2.200000 18.300000
v 19.700000 2.200000 18.300000
v 9.850000 2.000000 4.850000
v 10.150000 2.000000 4.850000
v 10.150000 2.500000 4.850000
v 9.850000 2.500000 4.850000
v 9.850000 2.000000 5.150000
v 10.150000 2.000000 5.150000
v 10.150000 2.500000 5.150000
v 9.850000 2.500000 5.150000
v 25.850000 2.000000 1.850000
v 26.150000 2.000000 1.850000
v 26.150000 2.500000 1.850000
v 25.850000 2.500000 1.850000
v 25.850000 2.000000 2.150000
v 26.150000 2.000000 2.150000
v 26.150000 2.500000 2.150000
v 25.850000 2.500000 2.150000
v 21.850000 2.000000 15.850000
v 22.150000 2.000000 15.850000
v 22.150000 2.500000 15.850000
v 21.850000 2.500000 15.850000
v 21.850000 2.000000 16.150000
v 22.150000 2.000000 16.150000
v 22.150000 2.500000 16.150000
v 21.850000 2.500000 16.150000
usemtl room_spawn
f 1 2 3
f 1 3 4
f 5 6 7
f 5 7 8
f 1 4 8
f 1 8 5
f 2 6 7
f 2 7 3
f 1 5 6
f 1 6 2
f 4 3 7
f 4 7 8
usemtl border
f 9 10 11
f 9 11 12
f 13 14 15
f 13 15 16
f 9 12 16
f 9 16 13
f 10 14 15
f 10 15 11
f 9 13 14
f 9 14 10
f 12 11 15
f 12 15 16
f 17 18 19
f 17 19 20
f 21 22 23
f 21 23 24
f 17 20 24
f 17 24 21
f 18 22 23
f 18 23 19
f 17 21 22
f 17 22 18
f 20 19 23
f 20 23 24
f 25 26 27
f 25 27 28
f 29 30 31
f 29 31 32
f 25 28 32
f 25 32 29
f 26 30 31
f 26 31 27
f 25 29 30
f 25 30 26
f 28 27 31
f 28 31 32
f 33 34 35
f 33 35 36
f 37 38 39
f 37 39 40
f 33 36 40
f 33 40 37
f 34 38 39
f 34 39 35
f 33 37 38
f 33 38 34
f 36 35 39
f 36 39 40
usemtl room_hall
f 41 42 43
f 41 43 44
f 45 46 47
f 45 47 48
f 41 44 48
f 41 48 45
f 42 46 47
f 42 47 43
f 41 45 46
f 41 46 42
f 44 43 47
f 44 47 48
usemtl border
f 49 50 51
f 49 51 52
f 53 54 55
f 53 55 56
f 49 52 56
f 49 56 53
f 50 54 55
f 50 55 51
f 49 53 54
f 49 54 50
f 52 51 55
f 52 55 56
f 57 58 59
f 57 59 60
f 61 62 63
f 61 63 64
f 57 60 64
f 57 64 61
f 58 62 63
f 58 63 59
f 57 61 62
f 57 62 58
f 60 59 63
f 60 63 64
f 65 66 67
f 65 67 68
f 69 70 71
f 69 71 72
f 65 68 72
f 65 72 69
f 66 70 71
f 66 71 67
f 65 69 70
f 65 70 66
f 68 67 71
f 68 71 72
f 73 74 75
f 73 75 76
f 77 78 79
f 77 79 80
f 73 76 80
f 73 80 77
f 74 78 79
f 74 79 75
f 73 77 78
f 73 78 74
f 76 75 79
f 76 79 80
usemtl room_courtyard
f 81 82 83
f 81 83 84
f 85 86 87
f 85 87 88
f 81 84 88
f 81 88 85
f 82 86 87
f 82 87 83
f 81 85 86
f 81 86 82
f 84 83 87
f 84 87 88
usemtl border
f 89 90 91
f 89 91 92
f 93 94 95
f 93 95 96
f 89 92 96
f 89 96 93
f 90 94 95
f 90 95 91
f 89 93 94
f 89 94 90
f 92 91 95
f 92 95 96
f 97 98 99
f 97 99 100
f 101 102 103
f 101 103 104
f 97 100 104
f 97 104 101
f 98 102 103
f 98 103 99
f 97 101 102
f 97 102 98
f 100 99 103
f 100 103 104
f 105 106 107
f 105 107 108
f 109 110 111
f 109 111 112
f 105 108 112
f 105 112 109
f 106 110 111
f 106 111 107
f 105 109 110
f 105 110 106
f 108 107 111
f 108 111 112
f 113 114 115
f 113 115 116
f 117 118 119
f 117 119 120
f 113 116 120
f 113 120 117
f 114 118 119
f 114 119 115
f 113 117 118
f 113 118 114
f 116 115 119
f 116 119 120
usemtl room_stairs
f 121 122 123
f 121 123 124
f 125 126 127
f 125 127 128
f 121 124 128
f 121 128 125
f 122 126 127
f 122 127 123
f 121 125 126
f 121 126 122
f 124 123 127
f 124 127 128
usemtl border
f 129 130 131
f 129 131 132
f 133 134 135
f 133 135 136
f 129 132 136
f 129 136 133
f 130 134 135
f 130 135 131
f 129 133 134
f 129 134 130
f 132 131 135
f 132 135 136
f 137 138 139
f 137 139 140
f 141 142 143
f 141 143 144
f 137 140 144
f 137 144 141
f 138 142 143
f 138 143 139
f 137 141 142
f 137 142 138
f 140 139 143
f 140 143 144
f 145 146 147
f 145 147 148
f 149 150 151
f 149 151 152
f 145 148 152
f 145 152 149
f 146 150 151
f 146 151 147
f 145 149 150
f 145 150 146
f 148 147 151
f 148 151 152
f 153 154 155
f 153 155 156
f 157 158 159
f 157 159 160
f 153 156 160
f 153 160 157
f 154 158 159
f 154 159 155
f 153 157 158
f 153 158 154
f 156 155 159
f 156 159 160
usemtl room_power
f 161 162 163
f 161 163 164
f 165 166 167
f 165 167 168
f 161 164 168
f 161 168 165
f 162 166 167
f 162 167 163
f 161 165 166
f 161 166 162
f 164 163 167
f 164 167 168
usemtl border
f 169 170 171
f 169 171 172
f 173 174 175
f 173 175 176
f 169 172 176
f 169 176 173
f 170 174 175
f 170 175 171
f 169 173 174
f 169 174 170
f 172 171 175
f 172 175 176
f 177 178 179
f 177 179 180
f 181 182 183
f 181 183 184
f 177 180 184
f 177 184 181
f 178 182 183
f 178 183 179
f 177 181 182
f 177 182 178
f 180 179 183
f 180 183 184
f 185 186 187
f 185 187 188
f 189 190 191
f 189 191 192
f 185 188 192
f 185 192 189
f 186 190 191
f 186 191 187
f 185 189 190
f 185 190 186
f 188 187 191
f 188 191 192
f 193 194 195
f 193 195 196
f 197 198 199
f 197 199 200
f 193 196 200
f 193 200 197
f 194 198 199
f 194 199 195
f 193 197 198
f 193 198 194
f 196 195 199
f 196 199 200
usemtl portal
f 201 202 203
f 201 203 204
f 205 206 207
f 205 207 208
f 201 204 208
f 201 208 205
f 202 206 207
f 202 207 203
f 201 205 206
f 201 206 202
f 204 203 207
f 204 207 208
f 209 210 211
f 209 211 212
f 213 214 215
f 213 215 216
f 209 212 216
f 209 216 213
f 210 214 215
f 210 215 211
f 209 213 214
f 209 214 210
f 212 211 215
f 212 215 216
f 217 218 219
f 217 219 220
f 221 222 223
f 221 223 224
f 217 220 224
f 217 224 221
f 218 222 223
f 218 223 219
f 217 221 222
f 217 222 218
f 220 219 223
f 220 223 224
f 225 226 227
f 225 227 228
f 229 230 231
f 229 231 232
f 225 228 232
f 225 232 229
f 226 230 231
f 226 231 227
f 225 229 230
f 225 230 226
f 228 227 231
f 228 231 232
usemtl spawner
f 233 234 235
f 233 235 236
f 237 238 239
f 237 239 240
f 233 236 240
f 233 240 237
f 234 238 239
f 234 239 235
f 233 237 238
f 233 238 234
f 236 235 239
f 236 239 240
f 241 242 243
f 241 243 244
f 245 246 247
f 245 247 248
f 241 244 248
f 241 248 245
f 242 246 247
f 242 247 243
f 241 245 246
f 241 246 242
f 244 243 247
f 244 247 248
f 249 250 251
f 249 251 252
f 253 254 255
f 253 255 256
f 249 252 256
f 249 256 253
f 250 254 255
f 250 255 251
f 249 253 254
f 249 254 250
f 252 251 255
f 252 255 256
f 257 258 259
f 257 259 260
f 261 262 263
f 261 263 264
f 257 260 264
f 257 264 261
f 258 262 263
f 258 263 259
f 257 261 262
f 257 262 258
f 260 259 263
f 260 263 264
usemtl station
f 265 266 267
f 265 267 268
f 269 270 271
f 269 271 272
f 265 268 272
f 265 272 269
f 266 270 271
f 266 271 267
f 265 269 270
f 265 270 266
f 268 267 271
f 268 271 272
f 273 274 275
f 273 275 276
f 277 278 279
f 277 279 280
f 273 276 280
f 273 280 277
f 274 278 279
f 274 279 275
f 273 277 278
f 273 278 274
f 276 275 279
f 276 279 280
f 281 282 283
f 281 283 284
f 285 286 287
f 285 287 288
f 281 284 288
f 281 288 285
f 282 286 287
f 282 287 283
f 281 285 286
f 281 286 282
f 284 283 287
f 284 287 288
usemtl powerSw
f 289 290 291
f 289 291 292
f 293 294 295
f 293 295 296
f 289 292 296
f 289 296 293
f 290 294 295
f 290 295 291
f 289 293 294
f 289 294 290
f 292 291 295
f 292 295 296
usemtl light
f 297 298 299
f 297 299 300
f 301 302 303
f 301 303 304
f 297 300 304
f 297 304 301
f 298 302 303
f 298 303 299
f 297 301 302
f 297 302 298
f 300 299 303
f 300 303 304
f 305 306 307
f 305 307 308
f 309 310 311
f 309 311 312
f 305 308 312
f 305 312 309
f 306 310 311
f 306 311 307
f 305 309 310
f 305 310 306
f 308 307 311
f 308 311 312
f 313 314 315
f 313 315 316
f 317 318 319
f 317 319 320
f 313 316 320
f 313 320 317
f 314 318 319
f 314 319 315
f 313 317 318
f 313 318 314
f 316 315 319
f 316 319 320
